<?xml version="1.0" standalone="no"?>
<!DOCTYPE svg PUBLIC "-//W3C//DTD SVG 20010904//EN"
 "http://www.w3.org/TR/2001/REC-SVG-20010904/DTD/svg10.dtd">
<svg version="1.0" xmlns="http://www.w3.org/2000/svg"
 width="300.000000pt" height="496.000000pt" viewBox="0 0 300.000000 496.000000"
 preserveAspectRatio="xMidYMid meet">
<metadata>
Created by potrace 1.10, written by Peter Selinger 2001-2011
</metadata>
<g transform="translate(0.000000,496.000000) scale(0.100000,-0.100000)"
fill="#ffffff" stroke="none">
<path d="M1573 4763 c-32 -6 -80 -58 -88 -93 l-7 -31 -39 44 c-73 83 -140 84
-168 1 -12 -35 -12 -48 -1 -90 20 -70 107 -156 180 -178 64 -19 74 -14 156 70
67 68 109 151 100 197 -11 59 -69 94 -133 80z m68 -53 c29 -16 25 -76 -9 -131
-36 -56 -118 -129 -146 -129 -28 0 -95 36 -124 67 -49 53 -70 134 -42 168 20
24 43 18 90 -25 24 -22 52 -40 62 -40 9 0 30 17 45 38 47 63 78 76 124 52z"/>
<path d="M2855 4124 c-9 -10 -15 -34 -15 -67 0 -29 -9 -108 -20 -177 -12 -69
-26 -159 -32 -200 -6 -41 -14 -79 -18 -83 -4 -5 -13 21 -19 58 -31 178 -111
444 -136 452 -5 1 -16 -1 -24 -6 -11 -7 -12 -66 -2 -372 7 -200 14 -374 17
-386 4 -22 37 -32 48 -15 2 4 -2 136 -9 292 -13 264 -13 315 -1 279 22 -62 68
-268 76 -341 11 -96 22 -128 45 -128 23 0 34 32 50 147 8 60 20 124 25 143 6
19 10 49 10 67 0 17 4 34 9 37 4 3 11 -110 15 -252 6 -208 10 -260 22 -272 14
-13 17 -13 30 4 19 27 18 123 -6 501 -11 171 -20 313 -20 316 0 15 -31 17 -45
3z"/>
<path d="M1710 4093 c-46 -17 -81 -74 -101 -163 -15 -63 -11 -355 5 -448 30
-173 117 -256 219 -207 29 14 38 14 56 3 39 -24 44 -1 25 123 -9 63 -23 120
-30 128 -10 11 -23 13 -61 5 -39 -7 -49 -13 -51 -31 -3 -21 1 -23 37 -23 43 0
41 5 55 -97 4 -30 -36 -66 -73 -66 -84 0 -119 70 -134 270 -14 182 -1 340 34
410 22 45 27 48 69 53 37 4 45 9 45 25 0 16 -7 20 -40 22 -22 1 -47 -1 -55 -4z"/>
<path d="M2384 4063 c-24 -57 -52 -198 -90 -448 -19 -126 -37 -244 -40 -261
-5 -24 -2 -33 12 -38 25 -10 31 0 49 88 9 44 18 82 20 86 2 4 26 3 52 -1 26
-4 53 -8 60 -8 8 -1 13 -28 15 -83 3 -82 3 -83 31 -86 18 -2 29 2 34 14 7 20
-14 230 -69 664 -7 52 -17 98 -23 102 -21 15 -36 7 -51 -29z m46 -304 c12
-101 24 -194 27 -206 4 -20 1 -23 -25 -23 -16 0 -44 3 -61 6 -36 8 -36 -4 0
239 23 150 28 179 34 173 3 -2 14 -87 25 -189z"/>
<path d="M1976 4081 c-6 -9 13 -758 19 -778 3 -7 14 -13 25 -13 11 0 20 6 21
13 2 30 -2 203 -7 311 -5 88 -4 117 5 112 6 -4 11 -15 11 -24 0 -9 18 -73 40
-142 22 -69 45 -152 51 -185 12 -68 23 -85 51 -85 17 0 19 5 15 38 -2 20 -25
94 -51 164 -25 70 -51 156 -57 190 -10 57 -9 68 10 116 42 105 19 235 -48 275
-31 18 -76 23 -85 8z m95 -103 c5 -21 7 -61 3 -90 -8 -59 -32 -117 -43 -100
-5 8 -6 236 -1 262 2 13 32 -39 41 -72z"/>
<path d="M1189 4063 c-54 -6 -64 -32 -50 -130 6 -43 14 -208 19 -368 l7 -290
69 -3 c53 -2 72 1 87 14 30 27 6 46 -52 42 -47 -3 -47 -3 -53 32 -3 19 -6 95
-6 168 l0 132 35 0 c31 0 35 3 35 25 0 31 -17 39 -53 26 l-27 -11 0 104 c0 57
-3 124 -6 150 l-7 46 35 0 c21 0 41 7 49 16 11 14 10 19 -10 35 -13 11 -26 18
-30 17 -3 -1 -22 -3 -42 -5z"/>
<path d="M1379 4051 c-22 -18 -22 -20 -11 -102 6 -46 14 -212 18 -369 3 -170
10 -290 16 -297 23 -29 168 -5 168 28 0 17 -50 29 -91 23 l-39 -7 2 169 c2
136 6 168 17 166 28 -6 52 9 49 31 -2 18 -9 22 -40 21 l-38 -1 0 81 c0 44 -3
111 -7 149 l-6 67 42 0 c45 0 63 19 41 45 -18 22 -92 19 -121 -4z"/>
<path d="M447 4030 c-40 -47 -51 -122 -44 -305 6 -152 24 -290 46 -363 18 -59
59 -119 90 -132 41 -17 67 -5 99 43 l27 41 3 225 c3 177 0 244 -12 310 -28
145 -74 211 -146 211 -30 0 -44 -6 -63 -30z m100 -42 c27 -31 40 -68 57 -158
32 -168 29 -449 -5 -524 -18 -38 -48 -31 -76 19 -74 135 -98 567 -37 663 8 12
20 22 27 22 8 0 23 -10 34 -22z"/>
<path d="M792 4050 c-67 -10 -76 -25 -63 -106 10 -70 25 -267 37 -514 7 -148
14 -173 47 -168 21 3 22 7 19 88 -2 46 -9 133 -16 192 l-12 108 26 0 c35 0 63
22 58 46 -3 18 -30 24 -67 13 -12 -3 -17 22 -28 131 -7 74 -11 141 -8 148 2 6
20 12 39 12 38 0 49 10 40 33 -8 21 -22 24 -72 17z"/>
<path d="M934 4035 c-14 -14 -23 -29 -20 -33 8 -14 26 -204 42 -462 16 -261
21 -288 57 -274 21 8 22 52 2 234 -8 74 -15 141 -15 148 0 7 13 12 34 12 38 0
62 21 52 46 -5 13 -15 15 -45 11 l-38 -5 -13 127 c-6 69 -13 133 -13 141 -1
10 9 16 33 18 43 4 54 14 45 41 -10 32 -87 30 -121 -4z"/>
<path d="M149 4020 c-69 -36 -72 -48 -70 -280 2 -372 47 -510 166 -510 62 0
103 18 121 52 13 25 14 32 2 39 -19 13 -25 11 -68 -13 -56 -32 -87 -19 -122
52 -36 73 -50 191 -46 402 3 161 4 168 28 193 22 23 31 26 84 23 49 -2 61 0
64 13 9 48 -90 66 -159 29z"/>
<path d="M1581 2955 c-16 -14 -35 -41 -41 -60 -11 -35 -30 -48 -30 -21 0 7
-18 30 -41 50 -50 46 -100 47 -132 4 -71 -95 45 -275 195 -303 35 -7 39 -4
110 67 117 115 146 201 89 259 -40 39 -105 41 -150 4z m127 -47 c11 -24 10
-34 -7 -74 -24 -53 -58 -96 -109 -137 -31 -24 -43 -28 -75 -23 -49 8 -90 39
-128 95 -54 82 -32 170 35 139 14 -6 26 -15 26 -19 0 -4 16 -20 36 -35 l36
-28 53 58 c47 51 57 57 87 54 24 -2 36 -10 46 -30z"/>
<path d="M1343 2449 c-99 -63 -104 -199 -13 -320 47 -63 215 -199 246 -199 29
0 191 169 234 245 42 73 47 146 14 210 -47 91 -148 111 -239 47 -43 -30 -43
-30 -62 -10 -46 51 -125 63 -180 27z m128 -66 c19 -16 42 -36 51 -46 20 -19
42 -13 69 19 22 27 85 51 120 46 39 -6 69 -52 69 -106 0 -59 -36 -121 -126
-215 l-81 -85 -79 64 c-87 71 -108 93 -141 154 -48 87 -11 192 69 195 9 1 31
-11 49 -26z"/>
<path d="M1698 1895 c-45 -31 -75 -78 -102 -163 -11 -37 -24 -69 -27 -72 -4
-3 -41 34 -82 81 -125 143 -199 179 -282 139 -118 -57 -127 -184 -23 -335 63
-90 188 -255 225 -296 l33 -36 -42 -6 c-45 -6 -81 -28 -112 -71 -16 -21 -21
-42 -21 -94 l0 -67 -57 0 c-61 0 -94 -17 -132 -68 -23 -31 -34 -133 -17 -165
11 -20 9 -20 -43 -15 -71 7 -120 -20 -148 -85 -33 -74 -13 -158 62 -267 66
-95 244 -249 337 -292 66 -30 171 -40 244 -23 204 49 377 181 535 407 88 125
114 187 114 269 0 154 -75 302 -277 544 l-78 94 62 179 c35 98 63 195 63 215
0 121 -133 194 -232 127z m135 -55 c46 -36 43 -71 -18 -246 -31 -87 -57 -159
-59 -161 -1 -2 -34 34 -71 79 l-69 81 34 100 c51 150 114 201 183 147z m-497
-40 c41 -29 501 -555 605 -693 68 -91 119 -188 140 -270 28 -105 25 -135 -22
-224 -156 -297 -418 -499 -644 -496 -88 1 -137 21 -235 100 -167 133 -260 260
-260 355 0 72 51 112 111 89 24 -9 127 -88 214 -166 46 -40 60 -43 75 -15 10
18 0 32 -80 115 -127 132 -156 204 -107 276 20 29 29 34 69 37 65 4 89 -12
188 -121 91 -101 120 -123 139 -104 20 20 11 38 -57 110 -38 40 -87 99 -108
132 -33 49 -39 66 -39 111 0 45 4 58 28 81 22 23 36 28 72 27 24 0 55 -8 69
-18 15 -9 72 -71 128 -137 77 -90 107 -119 123 -117 50 7 29 39 -264 386 -73
87 -227 291 -263 348 -55 87 -59 153 -13 200 33 33 76 31 131 -6z m-232 -1106
c11 -30 6 -37 -14 -19 -11 10 -17 22 -14 26 8 14 21 11 28 -7z"/>
</g>
</svg>
